<svg version="1.0" xmlns="http://www.w3.org/2000/svg"
 width="506.000000pt" height="554.000000pt" viewBox="0 0 506.000000 554.000000"
 preserveAspectRatio="xMidYMid meet" fill="currentColor">

<g transform="translate(0.000000,554.000000) scale(0.100000,-0.100000)"
fill="#5D4032" stroke="none" >
<path d="M1885 4999 c-71 -3 -222 -7 -335 -8 -113 -1 -215 -4 -227 -7 -16 -4
-23 -14 -23 -30 0 -19 5 -24 28 -25 15 0 82 -4 150 -8 112 -6 124 -9 146 -31
l24 -25 7 -345 c3 -190 10 -561 15 -825 5 -264 16 -815 24 -1225 8 -410 12
-801 9 -870 -5 -126 -40 -292 -94 -452 -30 -91 -134 -297 -213 -421 -67 -107
-75 -137 -38 -137 28 0 202 175 313 315 220 278 313 488 333 755 5 60 -1 426
-23 1625 -22 1139 -25 1620 -10 1631 8 6 43 16 78 22 69 12 98 31 88 56 -7 18
-24 18 -252 5z"/>
<path d="M775 4953 c10 -50 24 -33 45 -100 17 -34 30 -64 30 -67 0 -2 20 -46 44
-97 44 -94 130 -295 161 -378 26 -90 46 -180 51 -110 8 9 -112 325 -117 340
-1 3 -9 20 -9 2 0 14 -40 106 -122 288 -18 39 -57 96 -58 84z"/>
<path d="M1106 4025 c5 400 -24 -10 -70 -396 -22 -106 -22 -106 -3 -150 20
-44 94 -166 118 -191 6 -8 17 -21 22 -30 25 -40 112 -157 144 -194 20 -22 72
-82 115 -132 44 -50 81 -90 83 -88 10 10 -23 60 -88 132 -110 119 -175 195
-202 234 -13 19 -39 58 -59 85 -72 101 -123 227 -114 283 3 20 10 69 15 107 6
39 18 104 26 145 20 93 25 297 8 325 -10 16 -11 -1 -7 -90z"/>
<path d="M2123 3508 c-27 -13 -30 -34 -5 -42 10 -3 65 -12 123 -20 58 -7 116
-19 128 -25 l21 -12 0 -1508 c0 -1263 -2 -1510 -14 -1520 -12 -10 -82 -25
-221 -48 -41 -6 -50 -12 -50 -28 0 -20 7 -20 455 -20 l455 0 0 25 c0 32 -23
38 -167 39 -64 1 -123 4 -132 7 -14 6 -16 74 -16 675 0 630 1 669 18 669 158
4 599 -3 612 -10 9 -5 38 -46 65 -92 26 -46 62 -105 80 -133 17 -27 63 -102
102 -165 131 -214 385 -624 483 -780 54 -85 109 -174 124 -198 l26 -42 243 2
242 3 3 27 c4 31 2 31 -106 28 -29 -1 -66 1 -81 5 -35 8 -17 -20 -371 560
-149 244 -201 328 -265 430 -17 28 -46 75 -64 105 -41 71 -47 81 -103 167 -27
40 -48 76 -48 81 0 5 -7 15 -15 22 -28 24 -16 48 43 88 31 22 109 93 172 159
94 98 129 144 194 252 127 213 164 353 152 571 -17 292 -140 487 -389 612 -97
48 -164 70 -305 100 -103 22 -128 22 -737 25 -448 2 -637 -1 -652 -9z m1230
-59 c85 -13 204 -57 267 -99 189 -126 290 -361 290 -675 0 -294 -94 -534 -318
-810 -36 -44 -72 -86 -80 -93 -13 -9 -105 -12 -412 -10 l-395 3 -3 835 c-1
459 0 841 3 848 6 16 543 17 648 1z"/>
<path d="M1548 2734 c-5 -4 -8 -16 -8 -26 0 -28 -29 -80 -59 -103 -63 -50 -77
-64 -40 -69 40 -10 170 150 102 260 -10 90 2 21 -120 180z"/>
<path d="M1246 2453 c-32 -32 -40 -61 -33 -117 6 -38 54 -142 63 -133 2 2 -10
32 -27 67 -37 77 -34 109 17 168 40 47 24 59 -20 15z"/>
<path d="M1288 2142 c4 -48 3 -50 -39 -84 -24 -20 -64 -45 -89 -57 -25 -12
-56 -30 -70 -41 -22 -17 -23 -19 -7 -26 10 -4 25 0 35 9 9 8 41 27 70 41 29
15 71 43 92 63 33 29 40 42 40 73 0 23 -7 43 -19 54 -17 16 -18 15 -13 -32z"/>
<path d="M1170 1900 c0 -5 5 -12 11 -16 6 -3 22 -30 35 -58 21 -46 24 -48 24
-22 0 17 -10 45 -22 63 -23 33 -48 50 -48 33z"/>
<path d="M1231 1744 c0 -11 3 -14 6 -6 3 7 2 16 -1 19 -3 4 -6 -2 -5 -13z"/>
<path d="M1146 1678 c-25 -36 -19 -39 21 -12 50 34 50 34 20 34 -15 0 -32 -9
-41 -22z"/>
<path d="M1101 1602 c-17 -32 -13 -114 10 -188 40 -128 10 -231 -95 -334 -30
-30 -54 -56 -52 -58 7 -6 80 45 113 79 49 52 65 101 65 199 -1 77 -18 187 -37
233 -4 9 -2 31 5 48 15 34 7 51 -9 21z"/>
</g>
</svg>
